<?xml version="1.0" standalone="no"?>
<!DOCTYPE svg PUBLIC "-//W3C//DTD SVG 20010904//EN"
 "http://www.w3.org/TR/2001/REC-SVG-20010904/DTD/svg10.dtd">
<svg version="1.0" xmlns="http://www.w3.org/2000/svg"
 width="64.000000pt" height="64.000000pt" viewBox="0 0 64.000000 64.000000"
 preserveAspectRatio="xMidYMid meet">

<g transform="translate(0.000000,64.000000) scale(0.100000,-0.100000)"
fill="#0000CD" stroke="none">
<path d="M10 320 l0 -240 43 0 42 0 0 240 0 240 -42 0 -43 0 0 -240z m60 180
c0 -13 -7 -20 -20 -20 -13 0 -20 7 -20 20 0 13 7 20 20 20 13 0 20 -7 20 -20z
m0 -120 c0 -13 -7 -20 -20 -20 -13 0 -20 7 -20 20 0 13 7 20 20 20 13 0 20 -7
20 -20z m0 -120 c0 -13 -7 -20 -20 -20 -13 0 -20 7 -20 20 0 13 7 20 20 20 13
0 20 -7 20 -20z m0 -120 c0 -13 -7 -20 -20 -20 -13 0 -20 7 -20 20 0 13 7 20
20 20 13 0 20 -7 20 -20z"/>
<path d="M523 553 c16 -4 17 -24 17 -233 0 -209 -1 -229 -17 -233 -10 -3 10
-5 45 -6 l62 -1 0 240 0 240 -62 -1 c-35 -1 -55 -3 -45 -6z m87 -53 c0 -13 -7
-20 -20 -20 -13 0 -20 7 -20 20 0 13 7 20 20 20 13 0 20 -7 20 -20z m0 -120
c0 -13 -7 -20 -20 -20 -13 0 -20 7 -20 20 0 13 7 20 20 20 13 0 20 -7 20 -20z
m0 -120 c0 -13 -7 -20 -20 -20 -13 0 -20 7 -20 20 0 13 7 20 20 20 13 0 20 -7
20 -20z m0 -120 c0 -13 -7 -20 -20 -20 -13 0 -20 7 -20 20 0 13 7 20 20 20 13
0 20 -7 20 -20z"/>
<path d="M216 516 c4 -19 1 -26 -15 -31 -27 -8 -27 -19 2 -33 l22 -11 -22 0
c-12 -1 -28 -8 -36 -16 -8 -8 -18 -11 -22 -7 -5 4 -5 -1 -2 -11 4 -10 7 -25 7
-33 0 -8 7 -14 15 -14 12 0 15 -8 11 -32 -3 -18 -7 -55 -8 -83 l-3 -50 49 -3
49 -3 -5 63 c-2 35 -3 54 -1 42 4 -18 9 -20 41 -15 34 6 37 9 40 44 l3 37 80
0 c56 0 79 4 80 13 0 6 2 24 4 40 l4 27 -107 0 c-95 1 -104 2 -83 14 l24 14
-21 11 c-13 7 -22 21 -22 36 0 23 -2 24 -25 13 -19 -9 -28 -9 -37 0 -19 19
-29 14 -22 -12z m274 -101 c0 -13 -24 -15 -160 -15 -88 0 -160 4 -160 9 0 5
18 8 40 6 22 -1 40 1 40 6 0 5 54 9 120 9 100 0 120 -2 120 -15z m-140 -35 c0
-6 -37 -10 -90 -10 -53 0 -90 4 -90 10 0 6 37 10 90 10 53 0 90 -4 90 -10z
m140 0 c0 -6 -29 -10 -66 -10 -41 0 -63 4 -59 10 3 6 33 10 66 10 33 0 59 -4
59 -10z m-245 -109 l0 -66 -37 -1 c-29 -1 -38 2 -37 15 0 10 2 11 6 4 11 -29
20 -10 12 25 -11 48 -10 89 2 47 7 -28 8 -27 6 10 -2 38 -1 41 23 37 24 -3 25
-7 25 -71z m45 65 c0 -8 4 -17 9 -20 5 -4 7 3 4 14 -4 14 0 20 11 20 11 0 16
-9 16 -30 0 -27 -3 -30 -30 -30 -27 0 -30 3 -30 30 0 17 5 30 10 30 6 0 10 -6
10 -14z"/>
<path d="M121 514 c0 -11 3 -14 6 -6 3 7 2 16 -1 19 -3 4 -6 -2 -5 -13z"/>
<path d="M380 292 c0 -22 -6 -32 -20 -37 -11 -3 -20 -10 -20 -15 0 -5 9 -12
20 -15 14 -4 20 -15 20 -36 0 -32 11 -37 30 -14 12 14 15 14 36 0 32 -21 37
-19 30 10 -5 20 -2 27 19 37 32 14 32 24 -1 32 -22 6 -25 10 -19 36 7 34 0 38
-26 14 -16 -14 -20 -14 -43 1 -26 17 -26 17 -26 -13z"/>
</g>
</svg>
