<?xml version="1.0" encoding="UTF-8"?>
<!DOCTYPE svg PUBLIC "-//W3C//DTD SVG 1.1//EN" "http://www.w3.org/Graphics/SVG/1.1/DTD/svg11.dtd">
<svg xmlns="http://www.w3.org/2000/svg" version="1.1" width="512px" height="512px" style="shape-rendering:geometricPrecision; text-rendering:geometricPrecision; image-rendering:optimizeQuality; fill-rule:evenodd; clip-rule:evenodd" xmlns:xlink="http://www.w3.org/1999/xlink">
<g><path style="opacity:0.959" fill="#010201" d="M 380.5,367.5 C 379.532,364.555 379.366,361.555 380,358.5C 440.016,302.437 460.016,234.437 440,154.5C 427.752,116.109 405.919,84.442 374.5,59.5C 329.084,25.2291 278.084,12.3957 221.5,21C 149.511,36.3359 100.177,78.3359 73.5,147C 53.6898,208.694 61.5231,266.527 97,320.5C 99.3644,323.69 101.864,326.69 104.5,329.5C 135.006,368.106 174.673,391.939 223.5,401C 270.156,408.046 313.823,399.713 354.5,376C 358.655,374.946 362.322,375.78 365.5,378.5C 367.443,385.153 365.109,389.653 358.5,392C 301.093,422.459 241.76,426.792 180.5,405C 115.449,378.283 73.2826,331.116 54,263.5C 36.7673,187.081 54.7673,120.415 108,63.5C 171.246,5.24637 244.079,-10.9203 326.5,15C 394.946,42.1183 438.779,91.2849 458,162.5C 474.063,243.303 452.23,311.803 392.5,368C 388.318,370.138 384.318,369.971 380.5,367.5 Z"/></g>
<g><path style="opacity:1" fill="#98e29a" d="M 374.5,59.5 C 380.186,72.0435 385.186,84.8768 389.5,98C 389.43,98.7648 389.097,99.2648 388.5,99.5C 348.224,53.8951 297.557,33.3951 236.5,38C 191.06,44.1336 153.227,64.3003 123,98.5C 120.875,102.394 121.042,106.061 123.5,109.5C 119.954,115.298 115.954,120.631 111.5,125.5C 106.442,124.717 102.942,126.717 101,131.5C 80.4785,173.674 76.8119,217.341 90,262.5C 100.358,294.581 118.192,321.581 143.5,343.5C 143.265,344.097 142.765,344.43 142,344.5C 129.054,340.438 116.554,335.438 104.5,329.5C 101.864,326.69 99.3644,323.69 97,320.5C 61.5231,266.527 53.6898,208.694 73.5,147C 100.177,78.3359 149.511,36.3359 221.5,21C 278.084,12.3957 329.084,25.2291 374.5,59.5 Z"/></g>
<g><path style="opacity:1" fill="#020403" d="M 388.5,99.5 C 427.053,148.085 437.887,202.418 421,262.5C 396.636,330.524 348.803,370.691 277.5,383C 227.185,388.501 182.518,375.335 143.5,343.5C 118.192,321.581 100.358,294.581 90,262.5C 76.8119,217.341 80.4785,173.674 101,131.5C 102.942,126.717 106.442,124.717 111.5,125.5C 115.423,127.683 116.923,131.017 116,135.5C 98.2558,168.901 92.9224,204.234 100,241.5C 115.958,307.458 156.792,348.958 222.5,366C 285.129,376.46 337.295,357.96 379,310.5C 413.902,264.093 422.568,213.093 405,157.5C 380.843,97.3471 336.676,62.5137 272.5,53C 216.584,48.6845 170.251,67.5179 133.5,109.5C 130.061,112.071 126.727,112.071 123.5,109.5C 121.042,106.061 120.875,102.394 123,98.5C 153.227,64.3003 191.06,44.1336 236.5,38C 297.557,33.3951 348.224,53.8951 388.5,99.5 Z"/></g>
<g><path style="opacity:1" fill="#008000" d="M 111.5,125.5 C 115.954,120.631 119.954,115.298 123.5,109.5C 126.727,112.071 130.061,112.071 133.5,109.5C 170.251,67.5179 216.584,48.6845 272.5,53C 336.676,62.5137 380.843,97.3471 405,157.5C 422.568,213.093 413.902,264.093 379,310.5C 337.295,357.96 285.129,376.46 222.5,366C 156.792,348.958 115.958,307.458 100,241.5C 92.9224,204.234 98.2558,168.901 116,135.5C 116.923,131.017 115.423,127.683 111.5,125.5 Z"/></g>
<g><path style="opacity:1" fill="#6dd3a0" d="M 374.5,59.5 C 405.919,84.442 427.752,116.109 440,154.5C 460.016,234.437 440.016,302.437 380,358.5C 379.366,361.555 379.532,364.555 380.5,367.5C 375.804,371.521 370.804,375.188 365.5,378.5C 362.322,375.78 358.655,374.946 354.5,376C 313.823,399.713 270.156,408.046 223.5,401C 174.673,391.939 135.006,368.106 104.5,329.5C 116.554,335.438 129.054,340.438 142,344.5C 142.765,344.43 143.265,344.097 143.5,343.5C 182.518,375.335 227.185,388.501 277.5,383C 348.803,370.691 396.636,330.524 421,262.5C 437.887,202.418 427.053,148.085 388.5,99.5C 389.097,99.2648 389.43,98.7648 389.5,98C 385.186,84.8768 380.186,72.0435 374.5,59.5 Z"/></g>
<g><path style="opacity:1" fill="#030404" d="M 318.5,219.5 C 316.158,216.283 315.991,212.95 318,209.5C 329,198.5 340,187.5 351,176.5C 358.638,162.436 356.138,150.602 343.5,141C 333.42,135.868 323.753,136.535 314.5,143C 288.472,169.362 262.139,195.362 235.5,221C 233.833,221.667 232.167,221.667 230.5,221C 218.222,209.724 206.222,198.057 194.5,186C 176.301,177.679 163.468,182.846 156,201.5C 154.656,208.388 155.99,214.722 160,220.5C 179.864,242.031 200.698,262.531 222.5,282C 231.13,285.548 239.463,284.881 247.5,280C 263.167,264.333 278.833,248.667 294.5,233C 297.95,230.991 301.283,231.158 304.5,233.5C 306.432,236.177 306.932,239.177 306,242.5C 289.5,259 273,275.5 256.5,292C 239.662,302.498 223.329,301.831 207.5,290C 186.273,269.441 165.773,248.275 146,226.5C 135.934,203.246 141.434,184.746 162.5,171C 179.323,163.632 194.656,165.965 208.5,178C 216.681,186.348 225.014,194.514 233.5,202.5C 257.653,178.847 281.653,155.014 305.5,131C 322.067,119.874 338.734,119.874 355.5,131C 372.896,147.678 375.062,166.178 362,186.5C 350.5,198 339,209.5 327.5,221C 324.177,221.932 321.177,221.432 318.5,219.5 Z"/></g>
<g><path style="opacity:1" fill="#ddf4fb" d="M 318.5,219.5 C 314.167,224.5 309.5,229.167 304.5,233.5C 301.283,231.158 297.95,230.991 294.5,233C 278.833,248.667 263.167,264.333 247.5,280C 239.463,284.881 231.13,285.548 222.5,282C 200.698,262.531 179.864,242.031 160,220.5C 155.99,214.722 154.656,208.388 156,201.5C 163.468,182.846 176.301,177.679 194.5,186C 206.222,198.057 218.222,209.724 230.5,221C 232.167,221.667 233.833,221.667 235.5,221C 262.139,195.362 288.472,169.362 314.5,143C 323.753,136.535 333.42,135.868 343.5,141C 356.138,150.602 358.638,162.436 351,176.5C 340,187.5 329,198.5 318,209.5C 315.991,212.95 316.158,216.283 318.5,219.5 Z"/></g>
<g><path style="opacity:0.929" fill="#000000" d="M -0.5,504.5 C -0.5,501.5 -0.5,498.5 -0.5,495.5C 6.79578,478.129 13.6291,460.462 20,442.5C 24.672,433.331 30.672,432.331 38,439.5C 45.7006,459.603 53.2006,479.77 60.5,500C 58.1149,508.446 53.2816,510.279 46,505.5C 44.3011,502.065 42.8011,498.565 41.5,495C 33.4792,494.168 25.4792,494.335 17.5,495.5C 16.7005,500.948 14.0338,505.115 9.5,508C 5.46947,508.818 2.13614,507.651 -0.5,504.5 Z M 28.5,464.5 C 29.3764,464.369 30.0431,464.702 30.5,465.5C 31.8776,469.803 33.5443,473.97 35.5,478C 31.8484,478.499 28.1817,478.665 24.5,478.5C 25.8333,473.833 27.1667,469.167 28.5,464.5 Z"/></g>
<g><path style="opacity:0.916" fill="#000000" d="M 64.5,434.5 C 67.5879,434.377 70.2546,435.377 72.5,437.5C 77.6287,450.719 82.462,464.052 87,477.5C 91.2722,464.016 95.9389,450.683 101,437.5C 108.119,432.986 112.952,434.82 115.5,443C 109.201,462.896 102.701,482.729 96,502.5C 92.0443,508.759 86.8777,509.926 80.5,506C 72.7477,486.412 65.581,466.579 59,446.5C 57.3935,440.721 59.2268,436.721 64.5,434.5 Z"/></g>
<g><path style="opacity:0.929" fill="#000000" d="M 142.5,434.5 C 146.31,434.379 149.477,435.712 152,438.5C 160.03,458.922 167.863,479.422 175.5,500C 172.475,509.201 167.309,510.701 160,504.5C 158.833,501.5 157.667,498.5 156.5,495.5C 148.5,494.167 140.5,494.167 132.5,495.5C 131.097,498.875 129.597,502.209 128,505.5C 122.158,510.04 117.491,509.04 114,502.5C 114.146,498.041 115.146,493.708 117,489.5C 123.53,472.911 129.863,456.245 136,439.5C 137.805,437.174 139.972,435.508 142.5,434.5 Z M 143.5,464.5 C 144.497,464.47 145.164,464.97 145.5,466C 147.275,470.044 148.608,474.211 149.5,478.5C 145.818,478.665 142.152,478.499 138.5,478C 140.66,473.686 142.327,469.186 143.5,464.5 Z"/></g>
<g><path style="opacity:0.922" fill="#000000" d="M 197.5,434.5 C 202.514,434.349 205.68,436.683 207,441.5C 207.667,461.833 207.667,482.167 207,502.5C 202.814,509.538 197.814,510.205 192,504.5C 191.333,482.5 191.333,460.5 192,438.5C 193.5,436.531 195.333,435.198 197.5,434.5 Z"/></g>
<g><path style="opacity:0.926" fill="#000000" d="M 229.5,434.5 C 234.514,434.349 237.68,436.683 239,441.5C 239.5,458.497 239.667,475.497 239.5,492.5C 244.511,492.334 249.511,492.501 254.5,493C 261.418,498.37 261.084,503.37 253.5,508C 245.5,508.667 237.5,508.667 229.5,508C 227.152,507.654 225.319,506.487 224,504.5C 223.333,482.5 223.333,460.5 224,438.5C 225.5,436.531 227.333,435.198 229.5,434.5 Z"/></g>
<g><path style="opacity:0.929" fill="#000000" d="M 303.5,434.5 C 309.052,434.186 312.885,436.519 315,441.5C 321.722,459.944 328.722,478.277 336,496.5C 337.782,503.282 335.282,507.282 328.5,508.5C 326.143,507.905 323.977,506.905 322,505.5C 320.691,501.901 319.191,498.401 317.5,495C 309.507,494.5 301.507,494.334 293.5,494.5C 292.64,497.911 291.474,501.244 290,504.5C 285.997,509.42 281.663,509.753 277,505.5C 275.543,502.634 275.21,499.634 276,496.5C 283,477.833 290,459.167 297,440.5C 298.436,437.558 300.603,435.558 303.5,434.5 Z M 305.5,463.5 C 307.67,467.984 309.67,472.65 311.5,477.5C 307.833,478.833 304.167,478.833 300.5,477.5C 302.18,472.812 303.847,468.146 305.5,463.5 Z"/></g>
<g><path style="opacity:0.934" fill="#000000" d="M 358.5,434.5 C 367.235,434.124 375.902,434.624 384.5,436C 393.357,439.709 398.024,446.376 398.5,456C 398.309,459.903 397.309,463.57 395.5,467C 404.233,476.027 405.733,486.194 400,497.5C 396.084,503.403 390.584,506.903 383.5,508C 374.091,508.917 364.758,508.584 355.5,507C 354.299,506.097 353.465,504.931 353,503.5C 352.333,482.167 352.333,460.833 353,439.5C 354.352,437.251 356.185,435.584 358.5,434.5 Z M 368.5,450.5 C 372.911,450.021 377.078,450.688 381,452.5C 383.209,456.207 382.376,459.04 378.5,461C 375.183,461.498 371.85,461.665 368.5,461.5C 368.5,457.833 368.5,454.167 368.5,450.5 Z M 368.5,477.5 C 373.511,477.334 378.511,477.501 383.5,478C 389.293,483.691 388.626,488.357 381.5,492C 377.179,492.499 372.846,492.666 368.5,492.5C 368.5,487.5 368.5,482.5 368.5,477.5 Z"/></g>
<g><path style="opacity:0.924" fill="#000000" d="M 425.5,434.5 C 429.794,434.198 432.961,435.864 435,439.5C 435.5,457.164 435.667,474.83 435.5,492.5C 440.844,492.334 446.177,492.501 451.5,493C 456.446,497.3 456.779,501.967 452.5,507C 443.576,508.58 434.576,508.913 425.5,508C 422.667,507.167 420.833,505.333 420,502.5C 419.333,481.833 419.333,461.167 420,440.5C 421.021,437.65 422.854,435.65 425.5,434.5 Z"/></g>
<g><path style="opacity:0.923" fill="#000000" d="M 511.5,438.5 C 511.5,441.167 511.5,443.833 511.5,446.5C 510.684,448.144 509.35,449.31 507.5,450C 500.842,450.5 494.175,450.666 487.5,450.5C 487.5,454.833 487.5,459.167 487.5,463.5C 493.509,463.334 499.509,463.501 505.5,464C 512.15,469.044 512.15,474.044 505.5,479C 499.509,479.499 493.509,479.666 487.5,479.5C 487.5,483.833 487.5,488.167 487.5,492.5C 494.175,492.334 500.842,492.5 507.5,493C 509.35,493.69 510.684,494.856 511.5,496.5C 511.5,499.167 511.5,501.833 511.5,504.5C 509.99,505.836 508.323,507.003 506.5,508C 496.833,508.667 487.167,508.667 477.5,508C 474.667,507.167 472.833,505.333 472,502.5C 471.333,481.833 471.333,461.167 472,440.5C 472.785,438.714 473.951,437.214 475.5,436C 485.734,434.383 496.067,434.05 506.5,435C 508.323,435.997 509.99,437.164 511.5,438.5 Z"/></g>
</svg>
