<?xml version="1.0" encoding="UTF-8"?>
<!DOCTYPE svg PUBLIC "-//W3C//DTD SVG 1.1//EN" "http://www.w3.org/Graphics/SVG/1.1/DTD/svg11.dtd">
<svg xmlns="http://www.w3.org/2000/svg" version="1.1" width="50px" height="50px" style="shape-rendering:geometricPrecision; text-rendering:geometricPrecision; image-rendering:optimizeQuality; fill-rule:evenodd; clip-rule:evenodd" xmlns:xlink="http://www.w3.org/1999/xlink">
<g><path style="opacity:0.769" fill="#008000" d="M 10.5,1.5 C 19.8333,1.5 29.1667,1.5 38.5,1.5C 38.5,8.83333 38.5,16.1667 38.5,23.5C 41.5,23.5 44.5,23.5 47.5,23.5C 47.6495,24.552 47.4828,25.552 47,26.5C 39.9241,34.0801 32.4241,41.0801 24.5,47.5C 16.5759,41.0801 9.07592,34.0801 2,26.5C 1.51722,25.552 1.35055,24.552 1.5,23.5C 4.5,23.5 7.5,23.5 10.5,23.5C 10.5,16.1667 10.5,8.83333 10.5,1.5 Z M 12.5,3.5 C 20.5,3.5 28.5,3.5 36.5,3.5C 36.5,10.8333 36.5,18.1667 36.5,25.5C 38.5273,25.3379 40.5273,25.5045 42.5,26C 36.6521,32.0149 30.6521,37.8482 24.5,43.5C 18.3479,37.8482 12.3479,32.0149 6.5,26C 8.4727,25.5045 10.4727,25.3379 12.5,25.5C 12.5,18.1667 12.5,10.8333 12.5,3.5 Z"/></g>
<g><path style="opacity:0.664" fill="#000000" d="M 23.5,10.5 C 26.4097,11.7939 28.7431,13.7939 30.5,16.5C 30,16.8333 29.5,17.1667 29,17.5C 27.6043,16.6057 26.1043,15.9391 24.5,15.5C 22.9996,15.4528 21.9996,16.1195 21.5,17.5C 24.2279,19.253 27.0612,20.9196 30,22.5C 31.437,27.5762 29.6037,30.9095 24.5,32.5C 20.5352,31.2139 18.5352,28.5472 18.5,24.5C 19.5,24.5 20.5,24.5 21.5,24.5C 22.5868,28.8815 24.5868,29.3815 27.5,26C 27.3552,25.228 27.0219,24.5613 26.5,24C 23.8976,23.0229 21.3976,21.8563 19,20.5C 18.3333,18.5 18.3333,16.5 19,14.5C 21.1184,13.7171 22.6184,12.3838 23.5,10.5 Z"/></g>
</svg>
