<?xml version="1.0" encoding="UTF-8"?>
<!DOCTYPE svg PUBLIC "-//W3C//DTD SVG 1.1//EN" "http://www.w3.org/Graphics/SVG/1.1/DTD/svg11.dtd">
<svg xmlns="http://www.w3.org/2000/svg" version="1.1" width="50px" height="50px" style="shape-rendering:geometricPrecision; text-rendering:geometricPrecision; image-rendering:optimizeQuality; fill-rule:evenodd; clip-rule:evenodd" xmlns:xlink="http://www.w3.org/1999/xlink">
<g><path style="opacity:0.615" fill="#0000CD" d="M 17.5,1.5 C 41.1541,0.318958 50.6541,11.319 46,34.5C 38.7573,46.8068 28.2573,50.6402 14.5,46C 2.19317,38.7573 -1.64016,28.2573 3,14.5C 6.16246,8.16411 10.9958,3.83077 17.5,1.5 Z M 18.5,4.5 C 36.9488,3.44852 45.4488,12.1152 44,30.5C 38.1981,42.9824 28.6981,47.1491 15.5,43C 4.9871,36.4639 1.82043,27.2972 6,15.5C 9.1476,10.5094 13.3143,6.84275 18.5,4.5 Z M 15.5,24.5 C 21.5,24.5 27.5,24.5 33.5,24.5C 33.9691,31.594 30.9691,36.2606 24.5,38.5C 18.0309,36.2606 15.0309,31.594 15.5,24.5 Z"/></g>
<g><path style="opacity:0.667" fill="#000000" d="M 12.5,12.5 C 14.8568,12.3367 17.1902,12.5034 19.5,13C 21.0368,14.1096 21.7035,15.6096 21.5,17.5C 19.6334,17.045 17.8001,16.3784 16,15.5C 14.1999,16.3784 12.3666,17.045 10.5,17.5C 10.3915,15.4862 11.0582,13.8195 12.5,12.5 Z"/></g>
<g><path style="opacity:0.667" fill="#000000" d="M 29.5,12.5 C 31.8568,12.3367 34.1902,12.5034 36.5,13C 38.0368,14.1096 38.7035,15.6096 38.5,17.5C 36.6334,17.045 34.8001,16.3784 33,15.5C 31.1999,16.3784 29.3666,17.045 27.5,17.5C 27.3915,15.4862 28.0582,13.8195 29.5,12.5 Z"/></g>
<g><path style="opacity:0.732" fill="#FF0000" d="M 12.5,22.5 C 20.5,22.5 28.5,22.5 36.5,22.5C 37.4014,30.32 34.7347,36.4867 28.5,41C 19.8815,42.7281 14.7148,39.2281 13,30.5C 12.5026,27.854 12.3359,25.1873 12.5,22.5 Z M 15.5,24.5 C 15.0309,31.594 18.0309,36.2606 24.5,38.5C 30.9691,36.2606 33.9691,31.594 33.5,24.5C 27.5,24.5 21.5,24.5 15.5,24.5 Z"/></g>
</svg>
