<?xml version="1.0" standalone="no"?>
<!DOCTYPE svg PUBLIC "-//W3C//DTD SVG 20010904//EN"
 "http://www.w3.org/TR/2001/REC-SVG-20010904/DTD/svg10.dtd">
<svg version="1.0" xmlns="http://www.w3.org/2000/svg"
 width="50.000000pt" height="50.000000pt" viewBox="0 0 50.000000 50.000000"
 preserveAspectRatio="xMidYMid meet">

<g transform="translate(0.000000,50.000000) scale(0.100000,-0.100000)"
fill="#0000CD" stroke="none">
<path d="M339 461 c-19 -19 -29 -40 -29 -59 0 -16 -9 -37 -20 -47 -19 -17 -20
-17 -39 6 -53 67 -58 72 -74 66 -23 -9 -21 -45 3 -84 l20 -33 -36 0 c-80 0
-154 -72 -154 -150 0 -76 74 -150 150 -150 78 0 150 74 150 154 l0 36 33 -20
c39 -24 75 -26 84 -3 6 16 1 21 -66 74 -23 19 -23 20 -6 39 10 11 31 20 47 20
41 0 88 48 88 90 0 43 -47 90 -90 90 -22 0 -41 -9 -61 -29z m108 -13 c13 -12
23 -33 23 -47 0 -35 -37 -71 -74 -71 -17 0 -40 -9 -53 -22 -22 -20 -25 -21
-40 -5 -16 15 -15 18 5 40 12 13 22 36 22 52 0 36 36 75 69 75 13 0 35 -10 48
-22z m-212 -99 c26 -33 76 -84 112 -112 43 -34 60 -53 49 -55 -9 -2 -29 6 -45
17 -34 25 -64 27 -81 6 -18 -21 -33 -19 -59 9 l-23 24 23 31 22 30 -26 40
c-23 35 -35 71 -23 71 1 0 24 -27 51 -61z m-45 -69 c0 -5 -16 -10 -36 -10 -54
0 -104 -53 -104 -110 0 -34 6 -48 34 -76 28 -28 42 -34 76 -34 57 0 110 50
110 104 0 20 5 36 11 36 18 0 4 -79 -19 -109 -10 -14 -38 -33 -60 -41 -80 -28
-158 22 -168 106 -7 52 21 104 66 126 38 20 90 24 90 8z m14 -76 c25 -26 46
-54 46 -64 0 -9 -12 -29 -26 -44 -58 -57 -154 -17 -154 64 0 41 38 90 70 90
10 0 38 -21 64 -46z"/>
</g>
</svg>
