<?xml version="1.0" encoding="UTF-8"?>
<!DOCTYPE svg PUBLIC "-//W3C//DTD SVG 1.1//EN" "http://www.w3.org/Graphics/SVG/1.1/DTD/svg11.dtd">
<svg xmlns="http://www.w3.org/2000/svg" version="1.1" width="512px" height="512px" style="shape-rendering:geometricPrecision; text-rendering:geometricPrecision; image-rendering:optimizeQuality; fill-rule:evenodd; clip-rule:evenodd" xmlns:xlink="http://www.w3.org/1999/xlink">
<g><path style="opacity:0.955" fill="#2d2f30" d="M 325.5,61.5 C 323.122,59.1223 320.455,57.1223 317.5,55.5C 313.125,43.2461 317.291,35.9128 330,33.5C 338.756,34.0891 343.256,38.7558 343.5,47.5C 342.486,58.3594 336.486,63.0261 325.5,61.5 Z"/></g>
<g><path style="opacity:0.928" fill="#edecec" d="M 317.5,55.5 C 320.455,57.1223 323.122,59.1223 325.5,61.5C 310.922,80.9894 296.589,100.656 282.5,120.5C 279.088,119.925 276.088,118.592 273.5,116.5C 288.142,96.1849 302.808,75.8516 317.5,55.5 Z"/></g>
<g><path style="opacity:0.953" fill="#2d2f30" d="M 213.5,89.5 C 211.092,91.9162 208.426,93.9162 205.5,95.5C 192.364,95.861 186.864,89.5277 189,76.5C 194.007,67.4993 201.174,65.3326 210.5,70C 216.996,75.8013 217.996,82.3013 213.5,89.5 Z"/></g>
<g><path style="opacity:0.929" fill="#ececeb" d="M 213.5,89.5 C 220.531,98.8571 227.531,108.19 234.5,117.5C 231.912,119.625 228.912,120.958 225.5,121.5C 218.833,112.833 212.167,104.167 205.5,95.5C 208.426,93.9162 211.092,91.9162 213.5,89.5 Z"/></g>
<g><path style="opacity:0.99" fill="#000000" d="M 273.5,116.5 C 276.088,118.592 279.088,119.925 282.5,120.5C 292.359,125.358 300.359,132.358 306.5,141.5C 272.516,143.493 238.183,144.16 203.5,143.5C 208.606,133.945 215.94,126.612 225.5,121.5C 228.912,120.958 231.912,119.625 234.5,117.5C 247.401,113.929 260.401,113.596 273.5,116.5 Z"/></g>
<g><path style="opacity:0.986" fill="#000000" d="M 306.5,141.5 C 356.617,143.322 406.951,144.156 457.5,144C 466.232,146.617 472.398,152.117 476,160.5C 477.657,252.457 477.99,344.457 477,436.5C 475.049,447.119 468.882,453.952 458.5,457C 442.837,457.5 427.17,457.667 411.5,457.5C 398.5,457.5 385.5,457.5 372.5,457.5C 294.5,457.5 216.5,457.5 138.5,457.5C 125.5,457.5 112.5,457.5 99.5,457.5C 83.8298,457.667 68.1631,457.5 52.5,457C 42.1181,453.952 35.9515,447.119 34,436.5C 33.01,344.457 33.3433,252.457 35,160.5C 38.6015,152.117 44.7682,146.617 53.5,144C 103.499,143.5 153.499,143.333 203.5,143.5C 238.183,144.16 272.516,143.493 306.5,141.5 Z"/></g>
<g><path style="opacity:1" fill="#3a3a39" d="M 64.5,169.5 C 192.581,169.004 320.581,169.504 448.5,171C 449.701,171.903 450.535,173.069 451,174.5C 451.667,258.833 451.667,343.167 451,427.5C 449.457,429.378 447.624,430.878 445.5,432C 318.086,432.996 190.753,432.663 63.5,431C 61.9512,429.786 60.7845,428.286 60,426.5C 59.3333,342.5 59.3333,258.5 60,174.5C 61.025,172.313 62.525,170.646 64.5,169.5 Z"/></g>
<g><path style="opacity:1" fill="#252728" d="M 184.5,176.5 C 219.275,174.623 253.609,177.457 287.5,185C 305.942,189.301 321.775,198.134 335,211.5C 344.946,226.067 351.612,242.067 355,259.5C 363.022,297.632 360.356,334.966 347,371.5C 342.027,382.8 334.527,391.966 324.5,399C 303.509,409.986 281.175,416.653 257.5,419C 219.349,424.054 181.349,423.054 143.5,416C 125.657,412.61 108.99,406.277 93.5,397C 79.904,384.319 71.0707,368.819 67,350.5C 63.1504,334.896 61.6504,319.063 62.5,303C 61.6431,275.618 66.8098,249.451 78,224.5C 85.6768,209.158 97.5101,198.324 113.5,192C 136.593,183.602 160.259,178.435 184.5,176.5 Z"/></g>
<g><path style="opacity:1" fill="#ebecec" d="M 187.5,184.5 C 217.428,183.379 247.095,185.546 276.5,191C 291.873,194.192 306.206,199.859 319.5,208C 331.012,218.512 338.845,231.346 343,246.5C 351.771,280.238 352.771,314.238 346,348.5C 343.087,361.322 337.754,372.989 330,383.5C 326.443,387.025 322.61,390.191 318.5,393C 297.683,403.25 275.683,409.25 252.5,411C 213.889,415.473 175.556,413.806 137.5,406C 123.585,402.808 110.585,397.475 98.5,390C 85.885,378.614 78.0517,364.447 75,347.5C 67.3823,310.603 69.3823,274.27 81,238.5C 87.3698,219.465 99.8698,206.298 118.5,199C 140.922,190.75 163.922,185.917 187.5,184.5 Z"/></g>
<g><path style="opacity:1" fill="#000000" d="M 419.5,249.5 C 420.399,242.518 420.565,235.518 420,228.5C 416.896,220.969 413.229,220.636 409,227.5C 408.233,235.215 408.4,242.882 409.5,250.5C 409.631,251.376 409.298,252.043 408.5,252.5C 405.567,251.07 403.067,249.07 401,246.5C 394.911,235.504 397.411,227.004 408.5,221C 418.288,218.585 425.455,221.752 430,230.5C 432.214,239.203 429.714,246.037 422.5,251C 420.843,251.725 419.843,251.225 419.5,249.5 Z"/></g>
<g><path style="opacity:1" fill="#000000" d="M 417.5,259.5 C 416.761,259.631 416.094,259.464 415.5,259C 417.15,255.861 418.483,252.694 419.5,249.5C 419.843,251.225 420.843,251.725 422.5,251C 429.714,246.037 432.214,239.203 430,230.5C 425.455,221.752 418.288,218.585 408.5,221C 397.411,227.004 394.911,235.504 401,246.5C 403.067,249.07 405.567,251.07 408.5,252.5C 409.298,252.043 409.631,251.376 409.5,250.5C 410.337,253.484 411.671,256.318 413.5,259C 412.552,259.483 411.552,259.649 410.5,259.5C 397.977,256.8 391.31,248.967 390.5,236C 392.132,222.2 399.798,214.7 413.5,213.5C 424.959,213.453 432.793,218.786 437,229.5C 439.728,245.747 433.228,255.747 417.5,259.5 Z"/></g>
<g><path style="opacity:1" fill="#000000" d="M 419.5,249.5 C 418.483,252.694 417.15,255.861 415.5,259C 416.094,259.464 416.761,259.631 417.5,259.5C 415.167,260.833 412.833,260.833 410.5,259.5C 411.552,259.649 412.552,259.483 413.5,259C 411.671,256.318 410.337,253.484 409.5,250.5C 408.4,242.882 408.233,235.215 409,227.5C 413.229,220.636 416.896,220.969 420,228.5C 420.565,235.518 420.399,242.518 419.5,249.5 Z"/></g>
<g><path style="opacity:1" fill="#0000CD" d="M 204.5,249.5 C 200.5,249.5 196.5,249.5 192.5,249.5C 192.5,260.5 192.5,271.5 192.5,282.5C 192.516,284.484 191.516,285.484 189.5,285.5C 187.962,285.547 186.962,284.88 186.5,283.5C 186.5,272.167 186.5,260.833 186.5,249.5C 182.5,249.5 178.5,249.5 174.5,249.5C 171.487,248.644 170.82,246.811 172.5,244C 183.5,243.333 194.5,243.333 205.5,244C 206.98,246.235 206.647,248.068 204.5,249.5 Z"/></g>
<g><path style="opacity:1" fill="#0000CD" d="M 211.5,242.5 C 213.39,242.297 214.89,242.963 216,244.5C 220.333,255.167 224.667,265.833 229,276.5C 233.333,265.833 237.667,255.167 242,244.5C 246.514,241.659 248.514,242.993 248,248.5C 243.333,259.833 238.667,271.167 234,282.5C 230.667,286.5 227.333,286.5 224,282.5C 219.333,271.167 214.667,259.833 210,248.5C 209.252,246.16 209.752,244.16 211.5,242.5 Z"/></g>
<g><path style="opacity:1" fill="#0000CD" d="M 174.5,249.5 C 178.5,249.5 182.5,249.5 186.5,249.5C 186.5,260.833 186.5,272.167 186.5,283.5C 185.505,272.679 185.172,261.679 185.5,250.5C 181.629,250.815 177.962,250.482 174.5,249.5 Z"/></g>
<g><path style="opacity:1" fill="#bbd6f1" d="M 204.5,249.5 C 201.038,250.482 197.371,250.815 193.5,250.5C 193.828,261.346 193.494,272.013 192.5,282.5C 192.5,271.5 192.5,260.5 192.5,249.5C 196.5,249.5 200.5,249.5 204.5,249.5 Z"/></g>
<g><path style="opacity:1" fill="#000000" d="M 419.5,328.5 C 418.127,328.657 416.793,328.49 415.5,328C 417.512,324.995 418.845,321.829 419.5,318.5C 419.281,319.675 419.614,320.675 420.5,321.5C 429.384,316.724 432.551,309.391 430,299.5C 425.279,291.061 418.113,287.894 408.5,290C 398.132,295.566 395.299,303.733 400,314.5C 402.149,317.659 404.983,319.992 408.5,321.5C 409.107,321.376 409.44,321.043 409.5,320.5C 410.168,323.245 411.501,325.745 413.5,328C 412.207,328.49 410.873,328.657 409.5,328.5C 394.71,323.94 388.877,313.94 392,298.5C 400.201,282.211 412.368,278.378 428.5,287C 438.227,296.079 440.061,306.579 434,318.5C 430.455,323.69 425.621,327.023 419.5,328.5 Z"/></g>
<g><path style="opacity:1" fill="#000000" d="M 419.5,318.5 C 420.457,311.523 420.623,304.523 420,297.5C 418.876,292.885 416.043,291.385 411.5,293C 410.299,293.903 409.465,295.069 409,296.5C 408.302,304.528 408.468,312.528 409.5,320.5C 409.44,321.043 409.107,321.376 408.5,321.5C 404.983,319.992 402.149,317.659 400,314.5C 395.299,303.733 398.132,295.566 408.5,290C 418.113,287.894 425.279,291.061 430,299.5C 432.551,309.391 429.384,316.724 420.5,321.5C 419.614,320.675 419.281,319.675 419.5,318.5 Z"/></g>
<g><path style="opacity:1" fill="#000000" d="M 419.5,318.5 C 418.845,321.829 417.512,324.995 415.5,328C 416.793,328.49 418.127,328.657 419.5,328.5C 416.167,329.833 412.833,329.833 409.5,328.5C 410.873,328.657 412.207,328.49 413.5,328C 411.501,325.745 410.168,323.245 409.5,320.5C 408.468,312.528 408.302,304.528 409,296.5C 409.465,295.069 410.299,293.903 411.5,293C 416.043,291.385 418.876,292.885 420,297.5C 420.623,304.523 420.457,311.523 419.5,318.5 Z"/></g>
<g><path style="opacity:1" fill="#0000CD" d="M 122.5,311.5 C 127.58,311.25 132.58,311.75 137.5,313C 142.525,315.357 142.692,317.857 138,320.5C 132.975,318.619 127.808,318.119 122.5,319C 117.807,321.689 117.473,324.689 121.5,328C 126.819,329.657 132.153,331.323 137.5,333C 143.876,337.429 145.043,342.929 141,349.5C 139.048,351.894 136.548,353.394 133.5,354C 126.615,355.098 119.949,354.431 113.5,352C 110.674,349.136 111.174,346.969 115,345.5C 120.959,348.718 127.126,349.218 133.5,347C 137.5,344.333 137.5,341.667 133.5,339C 128.062,337.641 122.728,335.974 117.5,334C 111.13,329.616 109.963,324.116 114,317.5C 116.637,315.109 119.47,313.109 122.5,311.5 Z"/></g>
<g><path style="opacity:1" fill="#0000CD" d="M 151.5,312.5 C 160.554,312.194 169.554,312.528 178.5,313.5C 179.848,315.611 179.515,317.445 177.5,319C 170.508,319.5 163.508,319.666 156.5,319.5C 156.5,323.167 156.5,326.833 156.5,330.5C 163.175,330.334 169.842,330.5 176.5,331C 177.833,332.667 177.833,334.333 176.5,336C 169.842,336.5 163.175,336.666 156.5,336.5C 156.5,340.167 156.5,343.833 156.5,347.5C 163.508,347.334 170.508,347.5 177.5,348C 180.167,350 180.167,352 177.5,354C 168.833,354.667 160.167,354.667 151.5,354C 151,353.5 150.5,353 150,352.5C 149.333,339.833 149.333,327.167 150,314.5C 150.717,313.956 151.217,313.289 151.5,312.5 Z"/></g>
<g><path style="opacity:1" fill="#0000CD" d="M 187.5,312.5 C 195.174,312.334 202.841,312.5 210.5,313C 217.921,315.676 220.754,320.842 219,328.5C 218.122,331.215 216.622,333.549 214.5,335.5C 219.62,341.118 220.62,347.285 217.5,354C 215.888,354.72 214.388,354.554 213,353.5C 212.667,350.167 212.333,346.833 212,343.5C 211.535,342.069 210.701,340.903 209.5,340C 204.264,338.661 198.93,338.161 193.5,338.5C 193.666,343.179 193.499,347.845 193,352.5C 191.267,354.602 189.267,354.935 187,353.5C 186.186,339.758 186.353,326.092 187.5,312.5 Z"/></g>
<g><path style="opacity:1" fill="#0000CD" d="M 228.5,312.5 C 230.467,312.261 232.301,312.594 234,313.5C 234.667,326.5 234.667,339.5 234,352.5C 232.267,354.602 230.267,354.935 228,353.5C 227.186,339.758 227.353,326.092 228.5,312.5 Z"/></g>
<g><path style="opacity:1" fill="#0000CD" d="M 271.5,318.5 C 264.5,318.5 257.5,318.5 250.5,318.5C 250.5,322.5 250.5,326.5 250.5,330.5C 256.833,330.5 263.167,330.5 269.5,330.5C 271.647,331.932 271.98,333.765 270.5,336C 263.842,336.5 257.175,336.666 250.5,336.5C 250.5,340.167 250.5,343.833 250.5,347.5C 257.508,347.334 264.508,347.5 271.5,348C 273.602,349.733 273.935,351.733 272.5,354C 263.5,354.667 254.5,354.667 245.5,354C 245,353.5 244.5,353 244,352.5C 243.333,339.833 243.333,327.167 244,314.5C 244.5,314 245,313.5 245.5,313C 254.5,312.333 263.5,312.333 272.5,313C 273.98,315.235 273.647,317.068 271.5,318.5 Z"/></g>
<g><path style="opacity:1" fill="#0000CD" d="M 289.5,311.5 C 295.319,311.276 300.985,312.11 306.5,314C 309.326,316.864 308.826,319.031 305,320.5C 299.975,318.619 294.808,318.119 289.5,319C 285.646,320.608 284.646,323.274 286.5,327C 292.725,329.479 299.058,331.812 305.5,334C 310.232,339.035 310.732,344.535 307,350.5C 305.065,352.102 302.899,353.269 300.5,354C 293.042,355.194 285.875,354.361 279,351.5C 278.257,349.559 278.424,347.726 279.5,346C 283.991,346.995 288.658,347.829 293.5,348.5C 296.757,348.582 299.591,347.582 302,345.5C 302.743,343.559 302.576,341.726 301.5,340C 296.56,338.181 291.56,336.514 286.5,335C 279.843,332.386 277.343,327.553 279,320.5C 281.489,316.168 284.989,313.168 289.5,311.5 Z"/></g>
<g><path style="opacity:1" fill="#ececed" d="M 193.5,319.5 C 198.511,319.334 203.511,319.501 208.5,320C 212.213,321.691 213.379,324.525 212,328.5C 211.097,329.701 209.931,330.535 208.5,331C 203.511,331.499 198.511,331.666 193.5,331.5C 193.5,327.5 193.5,323.5 193.5,319.5 Z"/></g>
<g><path style="opacity:1" fill="#0000CD" d="M 271.5,318.5 C 265.021,319.491 258.354,319.824 251.5,319.5C 251.5,322.833 251.5,326.167 251.5,329.5C 257.69,329.177 263.69,329.51 269.5,330.5C 263.167,330.5 256.833,330.5 250.5,330.5C 250.5,326.5 250.5,322.5 250.5,318.5C 257.5,318.5 264.5,318.5 271.5,318.5 Z"/></g>
<g><path style="opacity:1" fill="#242626" d="M 388.5,359.5 C 405.503,359.333 422.503,359.5 439.5,360C 442.033,361.916 442.033,363.916 439.5,366C 422.5,366.667 405.5,366.667 388.5,366C 387.232,363.837 387.232,361.67 388.5,359.5 Z"/></g>
<g><path style="opacity:1" fill="#242627" d="M 389.5,376.5 C 406.17,376.333 422.837,376.5 439.5,377C 441.602,378.733 441.935,380.733 440.5,383C 423.167,383.667 405.833,383.667 388.5,383C 387.144,380.586 387.478,378.419 389.5,376.5 Z"/></g>
<g><path style="opacity:1" fill="#242627" d="M 376.5,394.5 C 397.836,394.333 419.169,394.5 440.5,395C 441.935,397.267 441.602,399.267 439.5,401C 418.833,401.667 398.167,401.667 377.5,401C 375.316,399.102 374.983,396.936 376.5,394.5 Z"/></g>
<g><path style="opacity:1" fill="#242626" d="M 377.5,411.5 C 398.169,411.333 418.836,411.5 439.5,412C 442.033,414.084 442.033,416.084 439.5,418C 418.833,418.667 398.167,418.667 377.5,418C 374.939,415.844 374.939,413.677 377.5,411.5 Z"/></g>
<g><path style="opacity:0.951" fill="#393939" d="M 99.5,457.5 C 112.5,457.5 125.5,457.5 138.5,457.5C 136.704,464.06 134.037,470.226 130.5,476C 125.944,477.109 121.278,477.609 116.5,477.5C 112.5,477.333 108.5,477.167 104.5,477C 103.069,476.535 101.903,475.701 101,474.5C 99.5962,468.956 99.0962,463.29 99.5,457.5 Z"/></g>
<g><path style="opacity:0.95" fill="#393939" d="M 372.5,457.5 C 385.5,457.5 398.5,457.5 411.5,457.5C 411.904,463.29 411.404,468.956 410,474.5C 409.097,475.701 407.931,476.535 406.5,477C 402.5,477.167 398.5,477.333 394.5,477.5C 389.722,477.609 385.056,477.109 380.5,476C 376.963,470.226 374.296,464.06 372.5,457.5 Z"/></g>
</svg>
